<svg width="198" height="341" viewBox="0 0 198 341" fill="none" xmlns="http://www.w3.org/2000/svg">
<rect y="97" width="198" height="244" fill="#2B98F7"/>
<path d="M51.5805 242.074H45.4645L44.4525 245H41.2185L46.7405 229.622H50.3265L55.8485 245H52.5925L51.5805 242.074ZM50.7445 239.61L48.5225 233.186L46.3005 239.61H50.7445ZM60.9925 234.594C61.3885 234.007 61.9312 233.531 62.6205 233.164C63.3245 232.797 64.1239 232.614 65.0185 232.614C66.0599 232.614 66.9985 232.871 67.8345 233.384C68.6852 233.897 69.3525 234.631 69.8365 235.584C70.3352 236.523 70.5845 237.615 70.5845 238.862C70.5845 240.109 70.3352 241.216 69.8365 242.184C69.3525 243.137 68.6852 243.878 67.8345 244.406C66.9985 244.934 66.0599 245.198 65.0185 245.198C64.1092 245.198 63.3099 245.022 62.6205 244.67C61.9459 244.303 61.4032 243.834 60.9925 243.262V245H57.9125V228.72H60.9925V234.594ZM67.4385 238.862C67.4385 238.129 67.2845 237.498 66.9765 236.97C66.6832 236.427 66.2872 236.017 65.7885 235.738C65.3045 235.459 64.7765 235.32 64.2045 235.32C63.6472 235.32 63.1192 235.467 62.6205 235.76C62.1365 236.039 61.7405 236.449 61.4325 236.992C61.1392 237.535 60.9925 238.173 60.9925 238.906C60.9925 239.639 61.1392 240.277 61.4325 240.82C61.7405 241.363 62.1365 241.781 62.6205 242.074C63.1192 242.353 63.6472 242.492 64.2045 242.492C64.7765 242.492 65.3045 242.345 65.7885 242.052C66.2872 241.759 66.6832 241.341 66.9765 240.798C67.2845 240.255 67.4385 239.61 67.4385 238.862ZM77.4867 245.198C76.4894 245.198 75.5947 245.022 74.8027 244.67C74.0107 244.303 73.38 243.812 72.9107 243.196C72.456 242.58 72.2067 241.898 72.1627 241.15H75.2647C75.3234 241.619 75.5507 242.008 75.9467 242.316C76.3574 242.624 76.8634 242.778 77.4647 242.778C78.0514 242.778 78.506 242.661 78.8287 242.426C79.166 242.191 79.3347 241.891 79.3347 241.524C79.3347 241.128 79.1294 240.835 78.7187 240.644C78.3227 240.439 77.6847 240.219 76.8047 239.984C75.8954 239.764 75.1474 239.537 74.5607 239.302C73.9887 239.067 73.49 238.708 73.0647 238.224C72.654 237.74 72.4487 237.087 72.4487 236.266C72.4487 235.591 72.6394 234.975 73.0207 234.418C73.4167 233.861 73.974 233.421 74.6927 233.098C75.426 232.775 76.284 232.614 77.2667 232.614C78.7187 232.614 79.8774 232.981 80.7427 233.714C81.608 234.433 82.0847 235.408 82.1727 236.64H79.2247C79.1807 236.156 78.9754 235.775 78.6087 235.496C78.2567 235.203 77.78 235.056 77.1787 235.056C76.6214 235.056 76.1887 235.159 75.8807 235.364C75.5874 235.569 75.4407 235.855 75.4407 236.222C75.4407 236.633 75.646 236.948 76.0567 237.168C76.4674 237.373 77.1054 237.586 77.9707 237.806C78.8507 238.026 79.5767 238.253 80.1487 238.488C80.7207 238.723 81.212 239.089 81.6227 239.588C82.048 240.072 82.268 240.717 82.2827 241.524C82.2827 242.228 82.0847 242.859 81.6887 243.416C81.3074 243.973 80.75 244.413 80.0167 244.736C79.298 245.044 78.4547 245.198 77.4867 245.198ZM90.223 245.198C89.0496 245.198 87.9936 244.941 87.055 244.428C86.1163 243.9 85.3756 243.159 84.833 242.206C84.305 241.253 84.041 240.153 84.041 238.906C84.041 237.659 84.3123 236.559 84.855 235.606C85.4123 234.653 86.1676 233.919 87.121 233.406C88.0743 232.878 89.1376 232.614 90.311 232.614C91.4843 232.614 92.5476 232.878 93.501 233.406C94.4543 233.919 95.2023 234.653 95.745 235.606C96.3023 236.559 96.581 237.659 96.581 238.906C96.581 240.153 96.295 241.253 95.723 242.206C95.1656 243.159 94.403 243.9 93.435 244.428C92.4816 244.941 91.411 245.198 90.223 245.198ZM90.223 242.514C90.7803 242.514 91.301 242.382 91.785 242.118C92.2836 241.839 92.6796 241.429 92.973 240.886C93.2663 240.343 93.413 239.683 93.413 238.906C93.413 237.747 93.105 236.86 92.489 236.244C91.8876 235.613 91.147 235.298 90.267 235.298C89.387 235.298 88.6463 235.613 88.045 236.244C87.4583 236.86 87.165 237.747 87.165 238.906C87.165 240.065 87.451 240.959 88.023 241.59C88.6096 242.206 89.343 242.514 90.223 242.514ZM101.92 234.704C102.316 234.059 102.83 233.553 103.46 233.186C104.106 232.819 104.839 232.636 105.66 232.636V235.87H104.846C103.878 235.87 103.145 236.097 102.646 236.552C102.162 237.007 101.92 237.799 101.92 238.928V245H98.8403V232.812H101.92V234.704ZM110.815 234.572C111.211 234.015 111.753 233.553 112.443 233.186C113.147 232.805 113.946 232.614 114.841 232.614C115.882 232.614 116.821 232.871 117.657 233.384C118.507 233.897 119.175 234.631 119.659 235.584C120.157 236.523 120.407 237.615 120.407 238.862C120.407 240.109 120.157 241.216 119.659 242.184C119.175 243.137 118.507 243.878 117.657 244.406C116.821 244.934 115.882 245.198 114.841 245.198C113.946 245.198 113.154 245.015 112.465 244.648C111.79 244.281 111.24 243.819 110.815 243.262V250.808H107.735V232.812H110.815V234.572ZM117.261 238.862C117.261 238.129 117.107 237.498 116.799 236.97C116.505 236.427 116.109 236.017 115.611 235.738C115.127 235.459 114.599 235.32 114.027 235.32C113.469 235.32 112.941 235.467 112.443 235.76C111.959 236.039 111.563 236.449 111.255 236.992C110.961 237.535 110.815 238.173 110.815 238.906C110.815 239.639 110.961 240.277 111.255 240.82C111.563 241.363 111.959 241.781 112.443 242.074C112.941 242.353 113.469 242.492 114.027 242.492C114.599 242.492 115.127 242.345 115.611 242.052C116.109 241.759 116.505 241.341 116.799 240.798C117.107 240.255 117.261 239.61 117.261 238.862ZM126.231 235.342V241.238C126.231 241.649 126.326 241.949 126.517 242.14C126.722 242.316 127.06 242.404 127.529 242.404H128.959V245H127.023C124.427 245 123.129 243.739 123.129 241.216V235.342H121.677V232.812H123.129V229.798H126.231V232.812H128.959V235.342H126.231ZM132.736 231.36C132.194 231.36 131.739 231.191 131.372 230.854C131.02 230.502 130.844 230.069 130.844 229.556C130.844 229.043 131.02 228.617 131.372 228.28C131.739 227.928 132.194 227.752 132.736 227.752C133.279 227.752 133.726 227.928 134.078 228.28C134.445 228.617 134.628 229.043 134.628 229.556C134.628 230.069 134.445 230.502 134.078 230.854C133.726 231.191 133.279 231.36 132.736 231.36ZM134.254 232.812V245H131.174V232.812H134.254ZM142.709 245.198C141.536 245.198 140.48 244.941 139.541 244.428C138.603 243.9 137.862 243.159 137.319 242.206C136.791 241.253 136.527 240.153 136.527 238.906C136.527 237.659 136.799 236.559 137.341 235.606C137.899 234.653 138.654 233.919 139.607 233.406C140.561 232.878 141.624 232.614 142.797 232.614C143.971 232.614 145.034 232.878 145.987 233.406C146.941 233.919 147.689 234.653 148.231 235.606C148.789 236.559 149.067 237.659 149.067 238.906C149.067 240.153 148.781 241.253 148.209 242.206C147.652 243.159 146.889 243.9 145.921 244.428C144.968 244.941 143.897 245.198 142.709 245.198ZM142.709 242.514C143.267 242.514 143.787 242.382 144.271 242.118C144.77 241.839 145.166 241.429 145.459 240.886C145.753 240.343 145.899 239.683 145.899 238.906C145.899 237.747 145.591 236.86 144.975 236.244C144.374 235.613 143.633 235.298 142.753 235.298C141.873 235.298 141.133 235.613 140.531 236.244C139.945 236.86 139.651 237.747 139.651 238.906C139.651 240.065 139.937 240.959 140.509 241.59C141.096 242.206 141.829 242.514 142.709 242.514ZM158.081 232.636C159.533 232.636 160.706 233.098 161.601 234.022C162.495 234.931 162.943 236.207 162.943 237.85V245H159.863V238.268C159.863 237.3 159.621 236.559 159.137 236.046C158.653 235.518 157.993 235.254 157.157 235.254C156.306 235.254 155.631 235.518 155.133 236.046C154.649 236.559 154.407 237.3 154.407 238.268V245H151.327V232.812H154.407V234.33C154.817 233.802 155.338 233.391 155.969 233.098C156.614 232.79 157.318 232.636 158.081 232.636Z" fill="white"/>
<path d="M118.936 186.012C117.928 184.66 116.536 183.644 114.942 183.095C116.652 182.351 117.913 181.276 118.728 179.868C119.562 178.379 119.984 176.694 119.949 174.987C119.976 173.779 119.699 172.584 119.141 171.512C118.616 170.535 117.881 169.687 116.989 169.029C116.063 168.352 115.027 167.841 113.927 167.518C112.793 167.175 111.615 167 110.431 167H86.7521C86.0223 167 85.3223 167.29 84.8062 167.806C84.29 168.322 84.0001 169.022 84 169.752V172.297H108.322C109.894 172.297 111.06 172.656 111.818 173.374C112.576 174.092 112.955 175.085 112.955 176.352C112.955 177.621 112.576 178.621 111.818 179.353C111.058 180.083 109.892 180.448 108.322 180.448H97.7972V185.745H108.322C109.894 185.745 111.06 186.104 111.818 186.822C112.576 187.54 112.955 188.533 112.955 189.8C112.955 191.096 112.576 192.103 111.818 192.821C111.058 193.54 109.892 193.899 108.322 193.898H97.8087V199.195H110.433C111.678 199.198 112.92 199.066 114.137 198.803C115.279 198.565 116.362 198.101 117.322 197.438C118.266 196.767 119.026 195.871 119.536 194.832C120.088 193.741 120.364 192.369 120.364 190.715C120.364 188.889 119.888 187.322 118.936 186.012Z" fill="white"/>
<path fill-rule="evenodd" clip-rule="evenodd" d="M88.9794 173.83H84V179.127H88.9794V173.83ZM90.5769 179.127V173.83H96.1428V179.127H90.5769Z" fill="white"/>
<path fill-rule="evenodd" clip-rule="evenodd" d="M88.9794 180.447H84V185.744H88.9794V180.447ZM90.5769 185.744V180.447H96.1428V185.744H90.5769Z" fill="white"/>
<path fill-rule="evenodd" clip-rule="evenodd" d="M88.9794 187.168H84V192.465H88.9794V187.168ZM90.5769 192.465V187.168H96.1428V192.465H90.5769Z" fill="white"/>
<path fill-rule="evenodd" clip-rule="evenodd" d="M88.9794 193.894H84V199.191H88.9794V193.894ZM90.5769 199.191V193.894H96.1428V199.191H90.5769Z" fill="white"/>
<path d="M45.9948 77.6504L41.3212 87.3773L37.7285 94.8488L33.7137 103.205L30.8108 109.235L27.7636 115.584L25.5812 120.125L23.3062 124.854L21.5461 128.5L19.5283 132.713L18.1489 135.574L16.1417 139.737C15.6477 140.761 16.7031 141.835 17.7295 141.369L21.9458 139.477L24.8239 138.176L29.0707 136.254L32.7537 134.594L37.5437 132.44L42.1224 130.372L48.5225 127.49L54.6107 124.743L63.0536 120.938L70.5807 117.551L80.7342 112.979L45.9852 77.6203L45.9948 77.6504Z" fill="url(#paint0_linear_1_363)"/>
<path d="M19.5177 132.722L18.1384 135.584C18.6789 136.281 19.2895 136.97 19.9403 137.648C20.591 138.327 21.2529 138.927 21.9352 139.496L24.8132 138.195C23.8432 137.462 22.8846 136.619 21.9675 135.676C21.0404 134.723 20.2238 133.742 19.5076 132.732L19.5177 132.722Z" fill="url(#paint1_linear_1_363)"/>
<path d="M23.3063 124.864L21.5462 128.51C22.5267 129.944 23.6774 131.36 24.9988 132.728C26.3104 134.076 27.6943 135.265 29.0806 136.274L32.7637 134.614C30.9793 133.46 29.1992 131.995 27.5226 130.272C25.8461 128.549 24.4113 126.699 23.2963 124.864L23.3063 124.864Z" fill="url(#paint2_linear_1_363)"/>
<path d="M27.754 115.584L25.5716 120.124C26.9501 122.433 28.7282 124.778 30.8881 126.988C33.048 129.197 35.2933 131.018 37.5539 132.449L42.1327 130.382C39.3735 128.844 36.5426 126.695 33.939 124.019C31.3354 121.343 29.2155 118.404 27.7641 115.574L27.754 115.584Z" fill="url(#paint3_linear_1_363)"/>
<path d="M41.3215 87.3772L37.7289 94.8487C39.9903 99.8701 43.5983 105.15 48.3321 110.015C53.0265 114.84 58.1462 118.551 63.0637 120.958L70.5908 117.571C64.8712 115.312 58.6678 111.137 53.0759 105.39C47.4841 99.6427 43.3922 93.1861 41.3218 87.3572L41.3215 87.3772Z" fill="url(#paint4_linear_1_363)"/>
<path d="M33.7039 103.214L30.8011 109.244C32.6736 112.72 35.2753 116.266 38.5102 119.581C41.7056 122.865 45.1492 125.542 48.5326 127.509L54.6208 124.762C50.568 122.746 46.3598 119.668 42.4938 115.695C38.5984 111.681 35.6076 107.34 33.7041 103.204L33.7039 103.214Z" fill="url(#paint5_linear_1_363)"/>
<path style="mix-blend-mode:screen" d="M60.7601 92.6831L16.779 141.385C16.4907 141.261 16.2537 141.038 16.1277 140.746L49.6736 81.4003L60.7601 92.6831Z" fill="url(#paint6_linear_1_363)"/>
<path d="M46.5528 77.108C43.7552 79.83 49.2362 90.016 58.8025 99.8479C68.3687 109.68 78.3908 115.438 81.1984 112.716C84.0059 109.994 78.5149 99.8079 68.9486 89.9759C59.3824 80.144 49.3603 74.3862 46.5528 77.108Z" fill="#A1B6CE"/>
<path d="M69.9083 65.1608L69.1083 68.0208C68.7883 69.1508 62.0783 66.4608 60.9983 69.2308L61.6883 66.7508C62.0683 64.6108 65.1383 65.0208 67.4183 65.3008C68.7383 65.4708 69.7883 65.5908 69.9083 65.1608Z" fill="url(#paint7_linear_1_363)"/>
<path d="M69.909 65.1597C69.789 65.5897 68.739 65.4697 67.419 65.2997C65.859 63.4097 63.839 61.0697 64.159 59.7497C64.169 59.6997 64.189 59.6597 64.199 59.6097C64.369 59.1597 64.819 58.8797 65.409 58.6797C66.709 61.0697 70.169 64.2497 69.909 65.1597Z" fill="url(#paint8_linear_1_363)"/>
<path d="M72.4885 53.5293L71.6885 56.3893C71.1585 58.2993 67.4285 57.9993 65.4085 58.6793C64.8185 58.8793 64.3685 59.1593 64.1985 59.6093L64.9985 56.7593C65.5885 55.1693 69.5585 55.6293 71.4985 54.6293C71.9885 54.3793 72.3485 54.0293 72.4885 53.5293Z" fill="url(#paint9_linear_1_363)"/>
<path d="M72.4878 53.53C72.3478 54.03 71.9878 54.38 71.4978 54.63C70.6578 52.62 68.1978 50.32 68.7078 46.52C68.7678 46.1 68.8478 45.7 68.9578 45.33C69.0978 44.85 69.2678 44.4 69.4778 43.99C69.0478 48.71 73.1878 51.07 72.4978 53.53H72.4878Z" fill="url(#paint10_linear_1_363)"/>
<path d="M78.0579 36L77.2579 38.86C77.2579 38.86 71.6279 39.62 69.4579 43.98C69.2479 44.39 69.0779 44.84 68.9379 45.32L69.7379 42.46C71.3179 36.91 78.0579 36 78.0579 36Z" fill="url(#paint11_linear_1_363)"/>
<path d="M138.873 85.9019L136.652 86.4325C136.652 86.4325 134.883 82.8068 132.463 82.1424C132.065 82.0394 131.654 82.0053 131.222 82.0892L133.443 81.5586C136.485 80.9845 138.873 85.9019 138.873 85.9019Z" fill="url(#paint12_linear_1_363)"/>
<path d="M99.4792 99.2704C99.1312 99.3392 98.7645 99.3435 98.3754 99.3032C101.395 97.1799 103.2 89.3873 108.901 87.8337C108.977 87.8069 109.061 87.7918 109.136 87.7748C109.188 87.7641 109.241 87.7534 109.294 87.7426C109.558 87.6891 109.814 87.6748 110.068 87.6803C104.683 90.064 103.097 98.2725 99.6804 99.2258C99.616 99.2445 99.5418 99.2615 99.4792 99.2704Z" fill="url(#paint13_linear_1_363)"/>
<path d="M124.635 94.5314C124.21 94.6369 123.798 94.6635 123.388 94.6294C126.908 92.3229 128.375 82.8729 131.095 82.118C131.095 82.118 131.169 82.101 131.202 82.0867C131.634 82.0028 132.044 82.0369 132.442 82.1399C130.015 84.5845 128.431 93.6168 124.626 94.5297L124.635 94.5314Z" fill="url(#paint14_linear_1_363)"/>
<path d="M99.4789 99.2702L97.2677 99.8026C93.5735 100.553 87.3056 94.2271 83.4306 95.0765L85.6517 94.5459C89.167 93.7733 94.6294 98.885 98.3752 99.303C98.7642 99.3433 99.1309 99.339 99.4789 99.2702Z" fill="url(#paint15_linear_1_363)"/>
<path d="M124.636 94.5319L122.415 95.0625C117.559 96.221 114.409 87.841 110.068 87.6804C109.815 87.6749 109.558 87.6891 109.294 87.7427L111.515 87.2121C115.873 86.3898 118.953 94.259 123.388 94.6299C123.789 94.6622 124.2 94.6355 124.636 94.5319Z" fill="url(#paint16_linear_1_363)"/>
<path d="M130.078 66.8L126.268 67.94C126.818 67.74 127.328 67.45 127.788 67.1C130.988 64.62 132.178 58.81 135.238 56.14L139.048 55C135.538 58.06 134.488 65.22 130.078 66.81V66.8Z" fill="url(#paint17_linear_1_363)"/>
<path d="M125.748 68.0994C125.438 68.1794 125.108 68.2294 124.768 68.2494C121.808 68.4294 117.678 66.4594 114.888 65.5894C111.918 64.6594 108.938 64.1494 105.908 64.3494C105.298 64.3894 104.708 64.4594 104.128 64.5594C104.728 64.2894 105.358 64.0594 105.988 63.8694H106.018C107.198 63.5094 108.438 63.2894 109.728 63.2094C112.768 63.0194 115.738 63.5294 118.708 64.4494C121.258 65.2494 124.928 66.9594 127.798 67.1094C127.338 67.4694 126.838 67.7494 126.278 67.9494C126.108 68.0094 125.938 68.0594 125.758 68.1094L125.748 68.0994Z" fill="url(#paint18_linear_1_363)"/>
<path d="M79.3883 84.41C77.9283 84.8 76.4483 84.81 74.9983 84.31L78.8083 83.17C79.7483 83.5 80.6883 83.61 81.6383 83.54C81.0883 83.82 80.5383 84.05 79.9883 84.24C79.7883 84.31 79.5883 84.37 79.3883 84.42V84.41Z" fill="url(#paint19_linear_1_363)"/>
<path d="M83.5183 83.1794H83.5083L79.9983 84.2294C80.5583 84.0394 81.1083 83.8094 81.6483 83.5294C86.4883 81.0594 90.8683 75.2494 92.9883 72.0094C95.2383 68.5694 98.4083 66.1294 102.168 64.9994L105.978 63.8594C105.338 64.0494 104.718 64.2794 104.118 64.5494C101.168 65.8494 98.6683 68.0194 96.7983 70.8694C94.3983 74.5394 89.1083 81.4994 83.5183 83.1794Z" fill="url(#paint20_linear_1_363)"/>
<path d="M111.028 20L109.148 22.88C109.148 22.88 105.618 26.05 98.3183 29.18C98.2783 29.2 98.2483 29.21 98.2083 29.23C97.5383 29.52 97.0783 29.87 96.7883 30.27L98.5683 27.54C98.8483 27.08 99.3283 26.68 100.088 26.35C107.468 23.21 111.038 20 111.038 20H111.028Z" fill="url(#paint21_linear_1_363)"/>
<path d="M88.8283 56.9805L87.0183 59.7405L86.8783 59.9505C86.1483 60.9505 84.7683 61.1805 82.9983 61.4905L84.8783 58.6105C85.8783 58.4305 86.7583 58.2805 87.4583 58.0105C88.0383 57.7805 88.4983 57.4705 88.8283 56.9805Z" fill="url(#paint22_linear_1_363)"/>
<path d="M88.8289 56.9804C88.5089 57.4704 88.0389 57.7804 87.4589 58.0104C87.4889 57.3804 87.4389 56.6204 87.2889 55.6904C86.8989 53.2404 85.5889 51.1504 86.8689 49.0904L86.9489 48.9604C87.2489 48.5204 87.6589 48.0904 88.2289 47.6504C88.0189 49.2604 88.8689 50.9304 89.1689 52.8104C89.4989 54.9104 89.3489 56.1804 88.8189 56.9804H88.8289Z" fill="url(#paint23_linear_1_363)"/>
<path d="M102.108 38.7695L100.308 41.5195L100.138 41.7695C98.9883 43.3295 95.9583 44.1695 92.9083 45.2995C90.7483 46.0995 89.2483 46.8795 88.2383 47.6495C87.6683 48.0895 87.2483 48.5195 86.9583 48.9595L88.8483 46.0695C89.6683 44.8695 91.4183 43.6695 94.7882 42.4295C96.9382 41.6295 99.0683 40.9795 100.548 40.1295C101.228 39.7395 101.768 39.2995 102.108 38.7795V38.7695Z" fill="url(#paint24_linear_1_363)"/>
<path d="M102.119 38.7599C101.779 39.2899 101.239 39.7299 100.559 40.1199C100.059 37.3799 95.1585 32.9799 96.6885 30.4099L96.7885 30.2599C97.0785 29.8599 97.5386 29.5099 98.2086 29.2199C98.2486 29.1999 98.2886 29.1899 98.3186 29.1699C98.8086 32.0899 103.079 36.0199 102.409 38.1499C102.339 38.3599 102.249 38.5599 102.129 38.7399L102.119 38.7599Z" fill="url(#paint25_linear_1_363)"/>
<path d="M101.998 54.43C102.498 55.05 103.158 55.25 104.258 55.29C104.528 53.57 104.878 52.59 105.748 51.18C104.948 51.11 104.428 50.8 103.538 50C102.668 51.44 102.288 52.71 101.998 54.43Z" fill="url(#paint26_linear_1_363)"/>
<path d="M81.0452 14.36C80.9252 16.12 81.0052 17.55 81.6452 18.87C82.8152 19.02 83.5652 18.87 84.3752 18.45C83.7252 16.79 83.5952 15.76 83.8152 14C82.7452 14.57 82.0252 14.75 81.0452 14.35V14.36Z" fill="url(#paint27_linear_1_363)"/>
<path d="M119.255 50.4804C119.395 49.7904 119.685 49.4504 120.175 49.0104C119.115 48.5704 118.005 48.2504 117.475 48.2704C117.245 48.7704 117.165 49.2404 117.155 49.9104C117.755 49.8804 118.325 50.1004 119.255 50.4904V50.4804Z" fill="url(#paint28_linear_1_363)"/>
<path d="M143.185 55.3496C142.825 55.4296 142.625 55.5296 142.325 55.8296C142.675 56.1296 142.825 56.3696 142.915 56.6696C143.255 56.6196 143.475 56.5296 143.805 56.3496C143.525 56.0496 143.375 55.7796 143.185 55.3496Z" fill="url(#paint29_linear_1_363)"/>
<path d="M102.315 34.1509C102.675 34.2609 102.905 34.2709 103.315 34.1709C103.155 33.7309 103.145 33.4509 103.225 33.1309C102.895 33.0009 102.655 32.9709 102.285 32.9609C102.385 33.3709 102.375 33.6809 102.325 34.1609L102.315 34.1509Z" fill="url(#paint30_linear_1_363)"/>
<path d="M76.9983 46C77.1783 46.73 77.4383 47.5 78.0983 48.06C78.7283 48.06 79.1483 48.09 79.7783 48.26C79.5183 47.77 79.6083 47.39 80.0183 46.72C79.0583 46.71 78.1783 46.41 76.9983 46Z" fill="url(#paint31_linear_1_363)"/>
<path d="M99.8083 77.02C99.7783 76.62 99.5683 76.38 99.2183 76C98.4183 76.8 97.3283 77.41 95.9983 77.99C96.2683 78.31 96.3583 78.57 96.4083 79.03C97.8483 78.49 98.6083 78.07 99.8083 77.02Z" fill="url(#paint32_linear_1_363)"/>
<path d="M159.758 51.95C159.138 51.66 158.838 51.47 158.498 51C158.318 51.21 158.178 51.31 157.998 51.32C158.328 51.85 158.678 52.13 159.308 52.49C159.518 52.34 159.648 52.16 159.758 51.95Z" fill="url(#paint33_linear_1_363)"/>
<path d="M117.377 78.99C118.117 79.41 118.847 79.34 119.957 78.95C119.547 77.14 119.507 76.03 119.817 74.3C118.997 74.54 118.367 74.44 117.167 74C116.867 75.77 116.987 77.17 117.377 78.99Z" fill="url(#paint34_linear_1_363)"/>
<path d="M144.468 75.27C144.658 74.54 144.678 74.12 144.308 73.4C143.048 73.38 142.298 73.27 141.098 73C141.158 73.45 141.098 73.77 140.998 74.04C142.388 74.31 143.208 74.66 144.468 75.28V75.27Z" fill="url(#paint35_linear_1_363)"/>
<path d="M158.908 76C158.068 76.84 156.878 77.33 153.998 77.38C154.218 78.61 154.758 79.61 155.848 80.72C157.988 80.38 159.238 80.01 160.968 78.83C159.918 78.09 159.508 77.41 158.908 76Z" fill="url(#paint36_linear_1_363)"/>
<path d="M98.295 0C97.985 1.25 97.875 2.29 98.175 3.32C98.995 3.57 99.555 3.56 100.185 3.36C99.915 2.08 99.955 1.33 100.335 0.0900002C99.495 0.37 98.955 0.41 98.295 0Z" fill="url(#paint37_linear_1_363)"/>
<path d="M142.778 30.0503C143.168 29.9103 143.548 29.8903 144.048 30.1303C144.258 28.7703 144.228 27.8903 144.098 26.5803C143.338 26.3403 142.868 26.3803 142.538 26.4503C142.988 27.7803 142.958 28.6803 142.788 30.0403L142.778 30.0503Z" fill="url(#paint38_linear_1_363)"/>
<path d="M110.998 34.4508C111.348 35.3908 111.268 36.0108 110.998 36.9208C112.608 36.6508 114.188 36.2008 114.818 35.7708C114.718 34.9908 114.448 34.3708 113.968 33.5508C113.268 34.0408 112.428 34.2108 110.998 34.4408V34.4508Z" fill="url(#paint39_linear_1_363)"/>
<path d="M131.218 52.2306C130.998 51.7406 130.788 51.4806 130.288 51.1406C129.968 51.7306 129.668 52.0106 129.248 52.2306C129.418 52.7106 129.608 53.0006 129.968 53.4106C130.318 52.9106 130.658 52.6206 131.218 52.2306Z" fill="url(#paint40_linear_1_363)"/>
<path d="M71.7383 77.91C72.1683 77.21 72.5783 76.42 72.5183 75.47C72.0383 74.98 71.7383 74.62 71.3883 74C71.1983 74.58 70.8383 74.79 69.9983 74.99C70.7183 75.75 71.1583 76.66 71.7383 77.91Z" fill="url(#paint41_linear_1_363)"/>
<path d="M86.1883 66.7272C85.1283 66.0872 84.4683 65.8472 83.1583 66.0972C82.5183 68.0672 81.9983 69.1972 80.9983 70.9572C81.7383 71.0772 82.2183 71.3172 82.5883 71.6072C83.6783 69.5472 84.6183 68.4272 86.1983 66.7272H86.1883Z" fill="url(#paint42_linear_1_363)"/>
<path d="M116.998 15.68C117.848 15.92 118.798 16.11 119.758 15.76C120.118 15.11 120.408 14.69 120.948 14.15C120.288 14.13 119.958 13.82 119.508 13C118.938 13.98 118.118 14.7 116.998 15.68Z" fill="url(#paint43_linear_1_363)"/>
<path d="M60.9983 72.62C60.9983 73.19 61.0983 73.53 61.4383 74.07C61.9983 73.64 62.4083 73.49 62.9083 73.45C62.9483 72.92 62.8783 72.55 62.7083 72C62.1583 72.33 61.7083 72.47 60.9983 72.61V72.62Z" fill="url(#paint44_linear_1_363)"/>
<defs>
<linearGradient id="paint0_linear_1_363" x1="26.6643" y1="105.287" x2="53.383" y2="129.436" gradientUnits="userSpaceOnUse">
<stop stop-color="#E3E3E3"/>
<stop offset="0.63" stop-color="#E2E2E2"/>
<stop offset="1" stop-color="white"/>
</linearGradient>
<linearGradient id="paint1_linear_1_363" x1="18.056" y1="133.15" x2="23.2718" y2="138.778" gradientUnits="userSpaceOnUse">
<stop stop-color="#1FD4F6"/>
<stop offset="1" stop-color="#1166B5"/>
</linearGradient>
<linearGradient id="paint2_linear_1_363" x1="21.3914" y1="125.59" x2="30.1581" y2="135.067" gradientUnits="userSpaceOnUse">
<stop stop-color="#1FD4F6"/>
<stop offset="1" stop-color="#1166B5"/>
</linearGradient>
<linearGradient id="paint3_linear_1_363" x1="25.3313" y1="116.651" x2="38.2838" y2="130.658" gradientUnits="userSpaceOnUse">
<stop stop-color="#1FD4F6"/>
<stop offset="1" stop-color="#1166B5"/>
</linearGradient>
<linearGradient id="paint4_linear_1_363" x1="37.2301" y1="89.5112" x2="62.9984" y2="117.334" gradientUnits="userSpaceOnUse">
<stop stop-color="#1FD4F6"/>
<stop offset="1" stop-color="#1166B5"/>
</linearGradient>
<linearGradient id="paint5_linear_1_363" x1="30.4483" y1="104.758" x2="49.0962" y2="124.914" gradientUnits="userSpaceOnUse">
<stop stop-color="#1FD4F6"/>
<stop offset="1" stop-color="#1166B5"/>
</linearGradient>
<linearGradient id="paint6_linear_1_363" x1="23.2587" y1="100.926" x2="41.0169" y2="119.436" gradientUnits="userSpaceOnUse">
<stop stop-color="#FFDA94"/>
<stop offset="0.25" stop-color="#B89D6B"/>
<stop offset="0.62" stop-color="#564931"/>
<stop offset="0.87" stop-color="#18140D"/>
<stop offset="1"/>
</linearGradient>
<linearGradient id="paint7_linear_1_363" x1="61.8488" y1="66.1824" x2="69.0714" y2="68.2031" gradientUnits="userSpaceOnUse">
<stop stop-color="#0038AB"/>
<stop offset="0.16" stop-color="#0061C9"/>
<stop offset="0.38" stop-color="#0097EF"/>
<stop offset="0.48" stop-color="#00ACFF"/>
<stop offset="0.57" stop-color="#00ACFF"/>
<stop offset="0.64" stop-color="#00A1F7"/>
<stop offset="0.75" stop-color="#0085E3"/>
<stop offset="0.9" stop-color="#0059C3"/>
<stop offset="1" stop-color="#0038AB"/>
</linearGradient>
<linearGradient id="paint8_linear_1_363" x1="60.5907" y1="58.8407" x2="77.013" y2="67.6926" gradientUnits="userSpaceOnUse">
<stop stop-color="#0038AB"/>
<stop offset="0.16" stop-color="#0061C9"/>
<stop offset="0.38" stop-color="#0097EF"/>
<stop offset="0.48" stop-color="#00ACFF"/>
<stop offset="0.57" stop-color="#00ACFF"/>
<stop offset="0.64" stop-color="#00A1F7"/>
<stop offset="0.75" stop-color="#0085E3"/>
<stop offset="0.9" stop-color="#0059C3"/>
<stop offset="1" stop-color="#0038AB"/>
</linearGradient>
<linearGradient id="paint9_linear_1_363" x1="65.3065" y1="55.7155" x2="71.412" y2="57.4236" gradientUnits="userSpaceOnUse">
<stop stop-color="#0038AB"/>
<stop offset="0.16" stop-color="#0061C9"/>
<stop offset="0.38" stop-color="#0097EF"/>
<stop offset="0.48" stop-color="#00ACFF"/>
<stop offset="0.57" stop-color="#00ACFF"/>
<stop offset="0.64" stop-color="#00A1F7"/>
<stop offset="0.75" stop-color="#0085E3"/>
<stop offset="0.9" stop-color="#0059C3"/>
<stop offset="1" stop-color="#0038AB"/>
</linearGradient>
<linearGradient id="paint10_linear_1_363" x1="65.2207" y1="47.001" x2="81.1947" y2="54.0037" gradientUnits="userSpaceOnUse">
<stop stop-color="#0038AB"/>
<stop offset="0.16" stop-color="#0061C9"/>
<stop offset="0.38" stop-color="#0097EF"/>
<stop offset="0.48" stop-color="#00ACFF"/>
<stop offset="0.57" stop-color="#00ACFF"/>
<stop offset="0.64" stop-color="#00A1F7"/>
<stop offset="0.75" stop-color="#0085E3"/>
<stop offset="0.9" stop-color="#0059C3"/>
<stop offset="1" stop-color="#0038AB"/>
</linearGradient>
<linearGradient id="paint11_linear_1_363" x1="70.4986" y1="39.8277" x2="76.5367" y2="41.517" gradientUnits="userSpaceOnUse">
<stop stop-color="#0038AB"/>
<stop offset="0.16" stop-color="#0061C9"/>
<stop offset="0.38" stop-color="#0097EF"/>
<stop offset="0.48" stop-color="#00ACFF"/>
<stop offset="0.57" stop-color="#00ACFF"/>
<stop offset="0.64" stop-color="#00A1F7"/>
<stop offset="0.75" stop-color="#0085E3"/>
<stop offset="0.9" stop-color="#0059C3"/>
<stop offset="1" stop-color="#0038AB"/>
</linearGradient>
<linearGradient id="paint12_linear_1_363" x1="124.604" y1="83.8229" x2="125.872" y2="89.1542" gradientUnits="userSpaceOnUse">
<stop stop-color="#DA0000"/>
<stop offset="0.09" stop-color="#E61014"/>
<stop offset="0.24" stop-color="#F82831"/>
<stop offset="0.33" stop-color="#FF313D"/>
<stop offset="0.36" stop-color="#FD3F49"/>
<stop offset="0.42" stop-color="#FB5C63"/>
<stop offset="0.47" stop-color="#F96D72"/>
<stop offset="0.51" stop-color="#F97478"/>
<stop offset="0.67" stop-color="#FF313D"/>
<stop offset="0.69" stop-color="#F92C37"/>
<stop offset="0.81" stop-color="#DD141A"/>
<stop offset="0.92" stop-color="#CC0509"/>
<stop offset="1" stop-color="#C70003"/>
</linearGradient>
<linearGradient id="paint13_linear_1_363" x1="95.2105" y1="87.5043" x2="97.5455" y2="109.754" gradientUnits="userSpaceOnUse">
<stop stop-color="#DA0000"/>
<stop offset="0.09" stop-color="#E61014"/>
<stop offset="0.24" stop-color="#F82831"/>
<stop offset="0.33" stop-color="#FF313D"/>
<stop offset="0.36" stop-color="#FD3F49"/>
<stop offset="0.42" stop-color="#FB5C63"/>
<stop offset="0.47" stop-color="#F96D72"/>
<stop offset="0.51" stop-color="#F97478"/>
<stop offset="0.67" stop-color="#FF313D"/>
<stop offset="0.69" stop-color="#F92C37"/>
<stop offset="0.81" stop-color="#DD141A"/>
<stop offset="0.92" stop-color="#CC0509"/>
<stop offset="1" stop-color="#C70003"/>
</linearGradient>
<linearGradient id="paint14_linear_1_363" x1="118.277" y1="84.9173" x2="120.702" y2="103.457" gradientUnits="userSpaceOnUse">
<stop stop-color="#DA0000"/>
<stop offset="0.09" stop-color="#E61014"/>
<stop offset="0.24" stop-color="#F82831"/>
<stop offset="0.33" stop-color="#FF313D"/>
<stop offset="0.36" stop-color="#FD3F49"/>
<stop offset="0.42" stop-color="#FB5C63"/>
<stop offset="0.47" stop-color="#F96D72"/>
<stop offset="0.51" stop-color="#F97478"/>
<stop offset="0.67" stop-color="#FF313D"/>
<stop offset="0.69" stop-color="#F92C37"/>
<stop offset="0.81" stop-color="#DD141A"/>
<stop offset="0.92" stop-color="#CC0509"/>
<stop offset="1" stop-color="#C70003"/>
</linearGradient>
<linearGradient id="paint15_linear_1_363" x1="80.8675" y1="95.8487" x2="82.6721" y2="103.437" gradientUnits="userSpaceOnUse">
<stop stop-color="#DA0000"/>
<stop offset="0.09" stop-color="#E61014"/>
<stop offset="0.24" stop-color="#F82831"/>
<stop offset="0.33" stop-color="#FF313D"/>
<stop offset="0.36" stop-color="#FD3F49"/>
<stop offset="0.42" stop-color="#FB5C63"/>
<stop offset="0.47" stop-color="#F96D72"/>
<stop offset="0.51" stop-color="#F97478"/>
<stop offset="0.67" stop-color="#FF313D"/>
<stop offset="0.69" stop-color="#F92C37"/>
<stop offset="0.81" stop-color="#DD141A"/>
<stop offset="0.92" stop-color="#CC0509"/>
<stop offset="1" stop-color="#C70003"/>
</linearGradient>
<linearGradient id="paint16_linear_1_363" x1="106.033" y1="88.6827" x2="108.383" y2="98.5671" gradientUnits="userSpaceOnUse">
<stop stop-color="#DA0000"/>
<stop offset="0.09" stop-color="#E61014"/>
<stop offset="0.24" stop-color="#F82831"/>
<stop offset="0.33" stop-color="#FF313D"/>
<stop offset="0.36" stop-color="#FD3F49"/>
<stop offset="0.42" stop-color="#FB5C63"/>
<stop offset="0.47" stop-color="#F96D72"/>
<stop offset="0.51" stop-color="#F97478"/>
<stop offset="0.67" stop-color="#FF313D"/>
<stop offset="0.69" stop-color="#F92C37"/>
<stop offset="0.81" stop-color="#DD141A"/>
<stop offset="0.92" stop-color="#CC0509"/>
<stop offset="1" stop-color="#C70003"/>
</linearGradient>
<linearGradient id="paint17_linear_1_363" x1="132.34" y1="51.4039" x2="133.114" y2="80.4163" gradientUnits="userSpaceOnUse">
<stop stop-color="#AB3C00"/>
<stop offset="0.47" stop-color="#FFC700"/>
<stop offset="0.59" stop-color="#FFC700"/>
<stop offset="1" stop-color="#AB3C00"/>
</linearGradient>
<linearGradient id="paint18_linear_1_363" x1="114.528" y1="61.1774" x2="117.334" y2="70.5253" gradientUnits="userSpaceOnUse">
<stop stop-color="#AB3C00"/>
<stop offset="0.47" stop-color="#FFC700"/>
<stop offset="0.59" stop-color="#FFC700"/>
<stop offset="1" stop-color="#AB3C00"/>
</linearGradient>
<linearGradient id="paint19_linear_1_363" x1="71.9002" y1="66.5413" x2="80.5873" y2="90.0878" gradientUnits="userSpaceOnUse">
<stop stop-color="#AB3C00"/>
<stop offset="0.47" stop-color="#FFC700"/>
<stop offset="0.59" stop-color="#FFC700"/>
<stop offset="1" stop-color="#AB3C00"/>
</linearGradient>
<linearGradient id="paint20_linear_1_363" x1="93.5637" y1="58.1891" x2="91.798" y2="102.216" gradientUnits="userSpaceOnUse">
<stop stop-color="#AB3C00"/>
<stop offset="0.47" stop-color="#FFC700"/>
<stop offset="0.59" stop-color="#FFC700"/>
<stop offset="1" stop-color="#AB3C00"/>
</linearGradient>
<linearGradient id="paint21_linear_1_363" x1="101.246" y1="23.4691" x2="106.526" y2="26.9233" gradientUnits="userSpaceOnUse">
<stop stop-color="#DA0000"/>
<stop offset="0.09" stop-color="#E61014"/>
<stop offset="0.24" stop-color="#F82831"/>
<stop offset="0.33" stop-color="#FF313D"/>
<stop offset="0.36" stop-color="#FD3F49"/>
<stop offset="0.42" stop-color="#FB5C63"/>
<stop offset="0.47" stop-color="#F96D72"/>
<stop offset="0.51" stop-color="#F97478"/>
<stop offset="0.67" stop-color="#FF313D"/>
<stop offset="0.69" stop-color="#F92C37"/>
<stop offset="0.81" stop-color="#DD141A"/>
<stop offset="0.92" stop-color="#CC0509"/>
<stop offset="1" stop-color="#C70003"/>
</linearGradient>
<linearGradient id="paint22_linear_1_363" x1="84.8971" y1="58.6374" x2="86.9056" y2="59.9512" gradientUnits="userSpaceOnUse">
<stop stop-color="#DA0000"/>
<stop offset="0.09" stop-color="#E61014"/>
<stop offset="0.24" stop-color="#F82831"/>
<stop offset="0.33" stop-color="#FF313D"/>
<stop offset="0.36" stop-color="#FD3F49"/>
<stop offset="0.42" stop-color="#FB5C63"/>
<stop offset="0.47" stop-color="#F96D72"/>
<stop offset="0.51" stop-color="#F97478"/>
<stop offset="0.67" stop-color="#FF313D"/>
<stop offset="0.69" stop-color="#F92C37"/>
<stop offset="0.81" stop-color="#DD141A"/>
<stop offset="0.92" stop-color="#CC0509"/>
<stop offset="1" stop-color="#C70003"/>
</linearGradient>
<linearGradient id="paint23_linear_1_363" x1="82.7711" y1="49.1923" x2="98.9696" y2="61.019" gradientUnits="userSpaceOnUse">
<stop stop-color="#DA0000"/>
<stop offset="0.09" stop-color="#E61014"/>
<stop offset="0.24" stop-color="#F82831"/>
<stop offset="0.33" stop-color="#FF313D"/>
<stop offset="0.36" stop-color="#FD3F49"/>
<stop offset="0.42" stop-color="#FB5C63"/>
<stop offset="0.47" stop-color="#F96D72"/>
<stop offset="0.51" stop-color="#F97478"/>
<stop offset="0.67" stop-color="#FF313D"/>
<stop offset="0.69" stop-color="#F92C37"/>
<stop offset="0.81" stop-color="#DD141A"/>
<stop offset="0.92" stop-color="#CC0509"/>
<stop offset="1" stop-color="#C70003"/>
</linearGradient>
<linearGradient id="paint24_linear_1_363" x1="91.5498" y1="41.9811" x2="97.4915" y2="45.8678" gradientUnits="userSpaceOnUse">
<stop stop-color="#DA0000"/>
<stop offset="0.09" stop-color="#E61014"/>
<stop offset="0.24" stop-color="#F82831"/>
<stop offset="0.33" stop-color="#FF313D"/>
<stop offset="0.36" stop-color="#FD3F49"/>
<stop offset="0.42" stop-color="#FB5C63"/>
<stop offset="0.47" stop-color="#F96D72"/>
<stop offset="0.51" stop-color="#F97478"/>
<stop offset="0.67" stop-color="#FF313D"/>
<stop offset="0.69" stop-color="#F92C37"/>
<stop offset="0.81" stop-color="#DD141A"/>
<stop offset="0.92" stop-color="#CC0509"/>
<stop offset="1" stop-color="#C70003"/>
</linearGradient>
<linearGradient id="paint25_linear_1_363" x1="95.0513" y1="31.916" x2="113.05" y2="43.4386" gradientUnits="userSpaceOnUse">
<stop stop-color="#DA0000"/>
<stop offset="0.09" stop-color="#E61014"/>
<stop offset="0.24" stop-color="#F82831"/>
<stop offset="0.33" stop-color="#FF313D"/>
<stop offset="0.36" stop-color="#FD3F49"/>
<stop offset="0.42" stop-color="#FB5C63"/>
<stop offset="0.47" stop-color="#F96D72"/>
<stop offset="0.51" stop-color="#F97478"/>
<stop offset="0.67" stop-color="#FF313D"/>
<stop offset="0.69" stop-color="#F92C37"/>
<stop offset="0.81" stop-color="#DD141A"/>
<stop offset="0.92" stop-color="#CC0509"/>
<stop offset="1" stop-color="#C70003"/>
</linearGradient>
<linearGradient id="paint26_linear_1_363" x1="89.7006" y1="60.172" x2="86.1707" y2="58.9708" gradientUnits="userSpaceOnUse">
<stop stop-color="#AB3C00"/>
<stop offset="0.34" stop-color="#FFC700"/>
<stop offset="0.37" stop-color="#FFCD17"/>
<stop offset="0.41" stop-color="#FFD432"/>
<stop offset="0.44" stop-color="#FFD946"/>
<stop offset="0.48" stop-color="#FFDC52"/>
<stop offset="0.52" stop-color="#FFDE56"/>
<stop offset="0.55" stop-color="#FFDC51"/>
<stop offset="0.59" stop-color="#FFD842"/>
<stop offset="0.62" stop-color="#FFD22B"/>
<stop offset="0.66" stop-color="#FFC90A"/>
<stop offset="0.67" stop-color="#FFC700"/>
<stop offset="1" stop-color="#AB3C00"/>
</linearGradient>
<linearGradient id="paint27_linear_1_363" x1="50.5689" y1="-3.4179" x2="53.7225" y2="-3.94222" gradientUnits="userSpaceOnUse">
<stop stop-color="#920040"/>
<stop offset="0.05" stop-color="#AD0052"/>
<stop offset="0.12" stop-color="#D00069"/>
<stop offset="0.19" stop-color="#EA0079"/>
<stop offset="0.25" stop-color="#F90083"/>
<stop offset="0.3" stop-color="#FF0087"/>
<stop offset="0.35" stop-color="#FF1A8B"/>
<stop offset="0.43" stop-color="#FF3F91"/>
<stop offset="0.5" stop-color="#FF5595"/>
<stop offset="0.55" stop-color="#FF5E97"/>
<stop offset="0.58" stop-color="#FF5595"/>
<stop offset="0.64" stop-color="#FF3E91"/>
<stop offset="0.71" stop-color="#FF198B"/>
<stop offset="0.75" stop-color="#FF0087"/>
<stop offset="0.79" stop-color="#F90083"/>
<stop offset="0.84" stop-color="#EA0079"/>
<stop offset="0.9" stop-color="#D10069"/>
<stop offset="0.96" stop-color="#AE0052"/>
<stop offset="1" stop-color="#920040"/>
</linearGradient>
<linearGradient id="paint28_linear_1_363" x1="124.992" y1="65.8849" x2="125.736" y2="63.5979" gradientUnits="userSpaceOnUse">
<stop stop-color="#400300"/>
<stop offset="0.07" stop-color="#750300"/>
<stop offset="0.14" stop-color="#A50300"/>
<stop offset="0.21" stop-color="#C80300"/>
<stop offset="0.26" stop-color="#DD0300"/>
<stop offset="0.3" stop-color="#E50300"/>
<stop offset="0.34" stop-color="#EE180C"/>
<stop offset="0.39" stop-color="#F72E18"/>
<stop offset="0.45" stop-color="#FD3B1F"/>
<stop offset="0.49" stop-color="#FF4022"/>
<stop offset="0.54" stop-color="#FD3B1F"/>
<stop offset="0.6" stop-color="#F72D17"/>
<stop offset="0.66" stop-color="#ED170B"/>
<stop offset="0.7" stop-color="#E50300"/>
<stop offset="0.73" stop-color="#DB0300"/>
<stop offset="0.79" stop-color="#C10300"/>
<stop offset="0.87" stop-color="#970300"/>
<stop offset="0.95" stop-color="#5E0300"/>
<stop offset="1" stop-color="#3B0300"/>
</linearGradient>
<linearGradient id="paint29_linear_1_363" x1="157.879" y1="34.3113" x2="156.898" y2="34.9033" gradientUnits="userSpaceOnUse">
<stop stop-color="#920040"/>
<stop offset="0.05" stop-color="#AD0052"/>
<stop offset="0.12" stop-color="#D00069"/>
<stop offset="0.19" stop-color="#EA0079"/>
<stop offset="0.25" stop-color="#F90083"/>
<stop offset="0.3" stop-color="#FF0087"/>
<stop offset="0.35" stop-color="#FF1A8B"/>
<stop offset="0.43" stop-color="#FF3F91"/>
<stop offset="0.5" stop-color="#FF5595"/>
<stop offset="0.55" stop-color="#FF5E97"/>
<stop offset="0.58" stop-color="#FF5595"/>
<stop offset="0.64" stop-color="#FF3E91"/>
<stop offset="0.71" stop-color="#FF198B"/>
<stop offset="0.75" stop-color="#FF0087"/>
<stop offset="0.79" stop-color="#F90083"/>
<stop offset="0.84" stop-color="#EA0079"/>
<stop offset="0.9" stop-color="#D10069"/>
<stop offset="0.96" stop-color="#AE0052"/>
<stop offset="1" stop-color="#920040"/>
</linearGradient>
<linearGradient id="paint30_linear_1_363" x1="117.163" y1="17.3042" x2="118.323" y2="17.2811" gradientUnits="userSpaceOnUse">
<stop stop-color="#AB3C00"/>
<stop offset="0.34" stop-color="#FFC700"/>
<stop offset="0.37" stop-color="#FFCD17"/>
<stop offset="0.41" stop-color="#FFD432"/>
<stop offset="0.44" stop-color="#FFD946"/>
<stop offset="0.48" stop-color="#FFDC52"/>
<stop offset="0.52" stop-color="#FFDE56"/>
<stop offset="0.55" stop-color="#FFDC51"/>
<stop offset="0.59" stop-color="#FFD842"/>
<stop offset="0.62" stop-color="#FFD22B"/>
<stop offset="0.66" stop-color="#FFC90A"/>
<stop offset="0.67" stop-color="#FFC700"/>
<stop offset="1" stop-color="#AB3C00"/>
</linearGradient>
<linearGradient id="paint31_linear_1_363" x1="83.5368" y1="76.8676" x2="83.339" y2="79.103" gradientUnits="userSpaceOnUse">
<stop stop-color="#005200"/>
<stop offset="0.19" stop-color="#00880B"/>
<stop offset="0.31" stop-color="#00A912"/>
<stop offset="0.33" stop-color="#11AC12"/>
<stop offset="0.37" stop-color="#39B512"/>
<stop offset="0.41" stop-color="#59BC12"/>
<stop offset="0.44" stop-color="#70C112"/>
<stop offset="0.48" stop-color="#7EC312"/>
<stop offset="0.51" stop-color="#83C512"/>
<stop offset="0.55" stop-color="#7EC412"/>
<stop offset="0.59" stop-color="#72C112"/>
<stop offset="0.63" stop-color="#5DBD12"/>
<stop offset="0.67" stop-color="#40B612"/>
<stop offset="0.72" stop-color="#1BAE12"/>
<stop offset="0.74" stop-color="#00A912"/>
<stop offset="0.78" stop-color="#009D10"/>
<stop offset="0.86" stop-color="#007F0B"/>
<stop offset="0.95" stop-color="#004F04"/>
<stop offset="1" stop-color="#003400"/>
</linearGradient>
<linearGradient id="paint32_linear_1_363" x1="137.721" y1="96.1804" x2="136.907" y2="94.3924" gradientUnits="userSpaceOnUse">
<stop stop-color="#005200"/>
<stop offset="0.19" stop-color="#00880B"/>
<stop offset="0.31" stop-color="#00A912"/>
<stop offset="0.33" stop-color="#11AC12"/>
<stop offset="0.37" stop-color="#39B512"/>
<stop offset="0.41" stop-color="#59BC12"/>
<stop offset="0.44" stop-color="#70C112"/>
<stop offset="0.48" stop-color="#7EC312"/>
<stop offset="0.51" stop-color="#83C512"/>
<stop offset="0.55" stop-color="#7EC412"/>
<stop offset="0.59" stop-color="#72C112"/>
<stop offset="0.63" stop-color="#5DBD12"/>
<stop offset="0.67" stop-color="#40B612"/>
<stop offset="0.72" stop-color="#1BAE12"/>
<stop offset="0.74" stop-color="#00A912"/>
<stop offset="0.78" stop-color="#009D10"/>
<stop offset="0.86" stop-color="#007F0B"/>
<stop offset="0.95" stop-color="#004F04"/>
<stop offset="1" stop-color="#003400"/>
</linearGradient>
<linearGradient id="paint33_linear_1_363" x1="147.78" y1="41.7928" x2="148.504" y2="40.8691" gradientUnits="userSpaceOnUse">
<stop stop-color="#0038AB"/>
<stop offset="0.11" stop-color="#0061C9"/>
<stop offset="0.27" stop-color="#0097EF"/>
<stop offset="0.35" stop-color="#00ACFF"/>
<stop offset="0.4" stop-color="#00BFFF"/>
<stop offset="0.47" stop-color="#00D2FF"/>
<stop offset="0.52" stop-color="#00D9FF"/>
<stop offset="0.66" stop-color="#00B7FF"/>
<stop offset="0.71" stop-color="#00ACFF"/>
<stop offset="0.76" stop-color="#00A1F7"/>
<stop offset="0.83" stop-color="#0085E3"/>
<stop offset="0.93" stop-color="#0059C3"/>
<stop offset="1" stop-color="#0038AB"/>
</linearGradient>
<linearGradient id="paint34_linear_1_363" x1="140.126" y1="52.8933" x2="136.188" y2="53.0792" gradientUnits="userSpaceOnUse">
<stop stop-color="#AB3C00"/>
<stop offset="0.34" stop-color="#FFC700"/>
<stop offset="0.37" stop-color="#FFCD17"/>
<stop offset="0.41" stop-color="#FFD432"/>
<stop offset="0.44" stop-color="#FFD946"/>
<stop offset="0.48" stop-color="#FFDC52"/>
<stop offset="0.52" stop-color="#FFDE56"/>
<stop offset="0.55" stop-color="#FFDC51"/>
<stop offset="0.59" stop-color="#FFD842"/>
<stop offset="0.62" stop-color="#FFD22B"/>
<stop offset="0.66" stop-color="#FFC90A"/>
<stop offset="0.67" stop-color="#FFC700"/>
<stop offset="1" stop-color="#AB3C00"/>
</linearGradient>
<linearGradient id="paint35_linear_1_363" x1="116.52" y1="29.0916" x2="116.347" y2="31.1575" gradientUnits="userSpaceOnUse">
<stop stop-color="#AB3C00"/>
<stop offset="0.34" stop-color="#FFC700"/>
<stop offset="0.37" stop-color="#FFCD17"/>
<stop offset="0.41" stop-color="#FFD432"/>
<stop offset="0.44" stop-color="#FFD946"/>
<stop offset="0.48" stop-color="#FFDC52"/>
<stop offset="0.52" stop-color="#FFDE56"/>
<stop offset="0.55" stop-color="#FFDC51"/>
<stop offset="0.59" stop-color="#FFD842"/>
<stop offset="0.62" stop-color="#FFD22B"/>
<stop offset="0.66" stop-color="#FFC90A"/>
<stop offset="0.67" stop-color="#FFC700"/>
<stop offset="1" stop-color="#AB3C00"/>
</linearGradient>
<linearGradient id="paint36_linear_1_363" x1="151.58" y1="95.5981" x2="153.624" y2="101.061" gradientUnits="userSpaceOnUse">
<stop stop-color="#400300"/>
<stop offset="0.07" stop-color="#750300"/>
<stop offset="0.14" stop-color="#A50300"/>
<stop offset="0.21" stop-color="#C80300"/>
<stop offset="0.26" stop-color="#DD0300"/>
<stop offset="0.3" stop-color="#E50300"/>
<stop offset="0.34" stop-color="#EE180C"/>
<stop offset="0.39" stop-color="#F72E18"/>
<stop offset="0.45" stop-color="#FD3B1F"/>
<stop offset="0.49" stop-color="#FF4022"/>
<stop offset="0.54" stop-color="#FD3B1F"/>
<stop offset="0.6" stop-color="#F72D17"/>
<stop offset="0.66" stop-color="#ED170B"/>
<stop offset="0.7" stop-color="#E50300"/>
<stop offset="0.73" stop-color="#DB0300"/>
<stop offset="0.79" stop-color="#C10300"/>
<stop offset="0.87" stop-color="#970300"/>
<stop offset="0.95" stop-color="#5E0300"/>
<stop offset="1" stop-color="#3B0300"/>
</linearGradient>
<linearGradient id="paint37_linear_1_363" x1="122.891" y1="27.992" x2="125.203" y2="28.0029" gradientUnits="userSpaceOnUse">
<stop stop-color="#005200"/>
<stop offset="0.19" stop-color="#00880B"/>
<stop offset="0.31" stop-color="#00A912"/>
<stop offset="0.33" stop-color="#11AC12"/>
<stop offset="0.37" stop-color="#39B512"/>
<stop offset="0.41" stop-color="#59BC12"/>
<stop offset="0.44" stop-color="#70C112"/>
<stop offset="0.48" stop-color="#7EC312"/>
<stop offset="0.51" stop-color="#83C512"/>
<stop offset="0.55" stop-color="#7EC412"/>
<stop offset="0.59" stop-color="#72C112"/>
<stop offset="0.63" stop-color="#5DBD12"/>
<stop offset="0.67" stop-color="#40B612"/>
<stop offset="0.72" stop-color="#1BAE12"/>
<stop offset="0.74" stop-color="#00A912"/>
<stop offset="0.78" stop-color="#009D10"/>
<stop offset="0.86" stop-color="#007F0B"/>
<stop offset="0.95" stop-color="#004F04"/>
<stop offset="1" stop-color="#003400"/>
</linearGradient>
<linearGradient id="paint38_linear_1_363" x1="142.187" y1="27.6574" x2="144.296" y2="27.5978" gradientUnits="userSpaceOnUse">
<stop stop-color="#400300"/>
<stop offset="0.07" stop-color="#750300"/>
<stop offset="0.14" stop-color="#A50300"/>
<stop offset="0.21" stop-color="#C80300"/>
<stop offset="0.26" stop-color="#DD0300"/>
<stop offset="0.3" stop-color="#E50300"/>
<stop offset="0.34" stop-color="#EE180C"/>
<stop offset="0.39" stop-color="#F72E18"/>
<stop offset="0.45" stop-color="#FD3B1F"/>
<stop offset="0.49" stop-color="#FF4022"/>
<stop offset="0.54" stop-color="#FD3B1F"/>
<stop offset="0.6" stop-color="#F72D17"/>
<stop offset="0.66" stop-color="#ED170B"/>
<stop offset="0.7" stop-color="#E50300"/>
<stop offset="0.73" stop-color="#DB0300"/>
<stop offset="0.79" stop-color="#C10300"/>
<stop offset="0.87" stop-color="#970300"/>
<stop offset="0.95" stop-color="#5E0300"/>
<stop offset="1" stop-color="#3B0300"/>
</linearGradient>
<linearGradient id="paint39_linear_1_363" x1="125.147" y1="42.9532" x2="125.978" y2="46.2436" gradientUnits="userSpaceOnUse">
<stop stop-color="#005200"/>
<stop offset="0.19" stop-color="#00880B"/>
<stop offset="0.31" stop-color="#00A912"/>
<stop offset="0.33" stop-color="#11AC12"/>
<stop offset="0.37" stop-color="#39B512"/>
<stop offset="0.41" stop-color="#59BC12"/>
<stop offset="0.44" stop-color="#70C112"/>
<stop offset="0.48" stop-color="#7EC312"/>
<stop offset="0.51" stop-color="#83C512"/>
<stop offset="0.55" stop-color="#7EC412"/>
<stop offset="0.59" stop-color="#72C112"/>
<stop offset="0.63" stop-color="#5DBD12"/>
<stop offset="0.67" stop-color="#40B612"/>
<stop offset="0.72" stop-color="#1BAE12"/>
<stop offset="0.74" stop-color="#00A912"/>
<stop offset="0.78" stop-color="#009D10"/>
<stop offset="0.86" stop-color="#007F0B"/>
<stop offset="0.95" stop-color="#004F04"/>
<stop offset="1" stop-color="#003400"/>
</linearGradient>
<linearGradient id="paint40_linear_1_363" x1="94.0501" y1="42.2484" x2="92.9271" y2="41.0311" gradientUnits="userSpaceOnUse">
<stop stop-color="#005200"/>
<stop offset="0.19" stop-color="#00880B"/>
<stop offset="0.31" stop-color="#00A912"/>
<stop offset="0.33" stop-color="#11AC12"/>
<stop offset="0.37" stop-color="#39B512"/>
<stop offset="0.41" stop-color="#59BC12"/>
<stop offset="0.44" stop-color="#70C112"/>
<stop offset="0.48" stop-color="#7EC312"/>
<stop offset="0.51" stop-color="#83C512"/>
<stop offset="0.55" stop-color="#7EC412"/>
<stop offset="0.59" stop-color="#72C112"/>
<stop offset="0.63" stop-color="#5DBD12"/>
<stop offset="0.67" stop-color="#40B612"/>
<stop offset="0.72" stop-color="#1BAE12"/>
<stop offset="0.74" stop-color="#00A912"/>
<stop offset="0.78" stop-color="#009D10"/>
<stop offset="0.86" stop-color="#007F0B"/>
<stop offset="0.95" stop-color="#004F04"/>
<stop offset="1" stop-color="#003400"/>
</linearGradient>
<linearGradient id="paint41_linear_1_363" x1="62.7755" y1="88.0587" x2="64.6829" y2="86.5039" gradientUnits="userSpaceOnUse">
<stop stop-color="#400300"/>
<stop offset="0.07" stop-color="#750300"/>
<stop offset="0.14" stop-color="#A50300"/>
<stop offset="0.21" stop-color="#C80300"/>
<stop offset="0.26" stop-color="#DD0300"/>
<stop offset="0.3" stop-color="#E50300"/>
<stop offset="0.34" stop-color="#EE180C"/>
<stop offset="0.39" stop-color="#F72E18"/>
<stop offset="0.45" stop-color="#FD3B1F"/>
<stop offset="0.49" stop-color="#FF4022"/>
<stop offset="0.54" stop-color="#FD3B1F"/>
<stop offset="0.6" stop-color="#F72D17"/>
<stop offset="0.66" stop-color="#ED170B"/>
<stop offset="0.7" stop-color="#E50300"/>
<stop offset="0.73" stop-color="#DB0300"/>
<stop offset="0.79" stop-color="#C10300"/>
<stop offset="0.87" stop-color="#970300"/>
<stop offset="0.95" stop-color="#5E0300"/>
<stop offset="1" stop-color="#3B0300"/>
</linearGradient>
<linearGradient id="paint42_linear_1_363" x1="73.7262" y1="71.7634" x2="76.8875" y2="73.0107" gradientUnits="userSpaceOnUse">
<stop stop-color="#AB3C00"/>
<stop offset="0.34" stop-color="#FFC700"/>
<stop offset="0.37" stop-color="#FFCD17"/>
<stop offset="0.41" stop-color="#FFD432"/>
<stop offset="0.44" stop-color="#FFD946"/>
<stop offset="0.48" stop-color="#FFDC52"/>
<stop offset="0.52" stop-color="#FFDE56"/>
<stop offset="0.55" stop-color="#FFDC51"/>
<stop offset="0.59" stop-color="#FFD842"/>
<stop offset="0.62" stop-color="#FFD22B"/>
<stop offset="0.66" stop-color="#FFC90A"/>
<stop offset="0.67" stop-color="#FFC700"/>
<stop offset="1" stop-color="#AB3C00"/>
</linearGradient>
<linearGradient id="paint43_linear_1_363" x1="86.5003" y1="5.329" x2="88.7034" y2="6.83746" gradientUnits="userSpaceOnUse">
<stop stop-color="#0038AB"/>
<stop offset="0.11" stop-color="#0061C9"/>
<stop offset="0.27" stop-color="#0097EF"/>
<stop offset="0.35" stop-color="#00ACFF"/>
<stop offset="0.4" stop-color="#00BFFF"/>
<stop offset="0.47" stop-color="#00D2FF"/>
<stop offset="0.52" stop-color="#00D9FF"/>
<stop offset="0.66" stop-color="#00B7FF"/>
<stop offset="0.71" stop-color="#00ACFF"/>
<stop offset="0.76" stop-color="#00A1F7"/>
<stop offset="0.83" stop-color="#0085E3"/>
<stop offset="0.93" stop-color="#0059C3"/>
<stop offset="1" stop-color="#0038AB"/>
</linearGradient>
<linearGradient id="paint44_linear_1_363" x1="58.9206" y1="70.4563" x2="59.4976" y2="72.1285" gradientUnits="userSpaceOnUse">
<stop stop-color="#0038AB"/>
<stop offset="0.11" stop-color="#0061C9"/>
<stop offset="0.27" stop-color="#0097EF"/>
<stop offset="0.35" stop-color="#00ACFF"/>
<stop offset="0.4" stop-color="#00BFFF"/>
<stop offset="0.47" stop-color="#00D2FF"/>
<stop offset="0.52" stop-color="#00D9FF"/>
<stop offset="0.66" stop-color="#00B7FF"/>
<stop offset="0.71" stop-color="#00ACFF"/>
<stop offset="0.76" stop-color="#00A1F7"/>
<stop offset="0.83" stop-color="#0085E3"/>
<stop offset="0.93" stop-color="#0059C3"/>
<stop offset="1" stop-color="#0038AB"/>
</linearGradient>
</defs>
</svg>
